<mxfile host="app.diagrams.net" agent="Mozilla/5.0 (Windows NT 10.0; Win64; x64) AppleWebKit/537.36 (KHTML, like Gecko) Chrome/131.0.0.0 Safari/537.36" version="26.0.2">
  <diagram name="Page-1" id="_Cao-DdU-brAF9ttdASg">
    <mxGraphModel dx="2074" dy="1179" grid="1" gridSize="10" guides="1" tooltips="1" connect="1" arrows="1" fold="1" page="1" pageScale="1" pageWidth="850" pageHeight="1100" math="0" shadow="0">
      <root>
        <mxCell id="0" />
        <mxCell id="1" parent="0" />
        <mxCell id="mS2ckP-VtipfmfZhe5i5-4" value="" style="edgeStyle=orthogonalEdgeStyle;rounded=0;orthogonalLoop=1;jettySize=auto;html=1;endArrow=none;" edge="1" parent="1" source="mS2ckP-VtipfmfZhe5i5-2" target="mS2ckP-VtipfmfZhe5i5-3">
          <mxGeometry relative="1" as="geometry" />
        </mxCell>
        <mxCell id="mS2ckP-VtipfmfZhe5i5-2" value="Function/&lt;br&gt;Routine" style="strokeWidth=2;html=1;shape=parallelogram;whiteSpace=wrap;rounded=1;arcSize=12;size=0.23;perimeter=parallelogramPerimeter;" vertex="1" parent="1">
          <mxGeometry x="375" y="220" width="100" height="100" as="geometry" />
        </mxCell>
        <mxCell id="mS2ckP-VtipfmfZhe5i5-3" value="" style="strokeWidth=2;html=1;shape=mxgraph.flowchart.annotation_2;align=left;labelPosition=right;pointerEvents=1;direction=south;" vertex="1" parent="1">
          <mxGeometry x="140" y="400" width="570" height="80" as="geometry" />
        </mxCell>
        <mxCell id="mS2ckP-VtipfmfZhe5i5-14" value="" style="edgeStyle=orthogonalEdgeStyle;rounded=0;orthogonalLoop=1;jettySize=auto;html=1;" edge="1" parent="1" source="mS2ckP-VtipfmfZhe5i5-6" target="mS2ckP-VtipfmfZhe5i5-13">
          <mxGeometry relative="1" as="geometry" />
        </mxCell>
        <mxCell id="mS2ckP-VtipfmfZhe5i5-6" value="Low level Functions&lt;br&gt;respective to problem" style="strokeWidth=2;html=1;shape=mxgraph.flowchart.decision;whiteSpace=wrap;" vertex="1" parent="1">
          <mxGeometry x="50" y="480" width="180" height="180" as="geometry" />
        </mxCell>
        <mxCell id="mS2ckP-VtipfmfZhe5i5-11" value="" style="edgeStyle=orthogonalEdgeStyle;rounded=0;orthogonalLoop=1;jettySize=auto;html=1;" edge="1" parent="1" source="mS2ckP-VtipfmfZhe5i5-10" target="mS2ckP-VtipfmfZhe5i5-2">
          <mxGeometry relative="1" as="geometry" />
        </mxCell>
        <mxCell id="mS2ckP-VtipfmfZhe5i5-10" value="Task/Problem &lt;br&gt;to solve" style="strokeWidth=2;html=1;shape=mxgraph.flowchart.start_2;whiteSpace=wrap;rounded=1;arcSize=12;size=0.23;" vertex="1" parent="1">
          <mxGeometry x="375" y="10" width="100" height="100" as="geometry" />
        </mxCell>
        <mxCell id="mS2ckP-VtipfmfZhe5i5-16" value="" style="edgeStyle=orthogonalEdgeStyle;rounded=0;orthogonalLoop=1;jettySize=auto;html=1;" edge="1" parent="1" source="mS2ckP-VtipfmfZhe5i5-12" target="mS2ckP-VtipfmfZhe5i5-15">
          <mxGeometry relative="1" as="geometry" />
        </mxCell>
        <mxCell id="mS2ckP-VtipfmfZhe5i5-12" value="Top level Function&lt;br&gt;respective to problem" style="strokeWidth=2;html=1;shape=mxgraph.flowchart.decision;whiteSpace=wrap;" vertex="1" parent="1">
          <mxGeometry x="620" y="480" width="180" height="180" as="geometry" />
        </mxCell>
        <mxCell id="mS2ckP-VtipfmfZhe5i5-13" value="Subroutine" style="shape=parallelogram;perimeter=parallelogramPerimeter;whiteSpace=wrap;html=1;fixedSize=1;strokeWidth=2;" vertex="1" parent="1">
          <mxGeometry x="80" y="800" width="120" height="60" as="geometry" />
        </mxCell>
        <mxCell id="mS2ckP-VtipfmfZhe5i5-15" value="Routine" style="shape=parallelogram;perimeter=parallelogramPerimeter;whiteSpace=wrap;html=1;fixedSize=1;strokeWidth=2;" vertex="1" parent="1">
          <mxGeometry x="650" y="800" width="120" height="60" as="geometry" />
        </mxCell>
        <mxCell id="mS2ckP-VtipfmfZhe5i5-17" value="" style="curved=1;endArrow=classic;html=1;rounded=0;exitX=0;exitY=0.5;exitDx=0;exitDy=0;entryX=0.017;entryY=0.31;entryDx=0;entryDy=0;entryPerimeter=0;" edge="1" parent="1" source="mS2ckP-VtipfmfZhe5i5-13" target="mS2ckP-VtipfmfZhe5i5-10">
          <mxGeometry width="50" height="50" relative="1" as="geometry">
            <mxPoint x="40" y="830" as="sourcePoint" />
            <mxPoint x="90" y="780" as="targetPoint" />
            <Array as="points">
              <mxPoint x="90" y="830" />
              <mxPoint x="40" y="780" />
              <mxPoint x="-10" y="190" />
            </Array>
          </mxGeometry>
        </mxCell>
        <mxCell id="mS2ckP-VtipfmfZhe5i5-21" value="" style="curved=1;endArrow=classic;html=1;rounded=0;entryX=0.95;entryY=0.4;entryDx=0;entryDy=0;entryPerimeter=0;" edge="1" parent="1" target="mS2ckP-VtipfmfZhe5i5-10">
          <mxGeometry width="50" height="50" relative="1" as="geometry">
            <mxPoint x="760" y="830" as="sourcePoint" />
            <mxPoint x="800" y="250" as="targetPoint" />
            <Array as="points">
              <mxPoint x="810" y="830" />
              <mxPoint x="850" y="200" />
            </Array>
          </mxGeometry>
        </mxCell>
      </root>
    </mxGraphModel>
  </diagram>
</mxfile>
